<svg width="100" height="100" viewBox="-51.2 -51.2 614.4 614.4" fill="none" xmlns="http://www.w3.org/2000/svg">
    <mask id="path-1-inside-1_61_60" fill="white">
        <path d="M0 100C0 44.7715 44.7715 0 100 0H412C467.228 0 512 44.7715 512 100V412C512 467.228 467.228 512 412 512H100C44.7715 512 0 467.228 0 412V100Z"/>
    </mask>
    <path d="M0 100C0 44.7715 44.7715 0 100 0H412C467.228 0 512 44.7715 512 100V412C512 467.228 467.228 512 412 512H100C44.7715 512 0 467.228 0 412V100Z" fill="url(#paint0_linear_61_60)"/>
    <path d="M100 3H412V-3H100V3ZM509 100V412H515V100H509ZM412 509H100V515H412V509ZM3 412V100H-3V412H3ZM100 509C46.4284 509 3 465.572 3 412H-3C-3 468.885 43.1147 515 100 515V509ZM509 412C509 465.572 465.572 509 412 509V515C468.885 515 515 468.885 515 412H509ZM412 3C465.572 3 509 46.4284 509 100H515C515 43.1147 468.885 -3 412 -3V3ZM100 -3C43.1147 -3 -3 43.1147 -3 100H3C3 46.4284 46.4284 3 100 3V-3Z" fill="url(#paint1_linear_61_60)" mask="url(#path-1-inside-1_61_60)"/>
    <path fill-rule="evenodd" clip-rule="evenodd" d="M276.219 91.3432C276.219 87.8399 273.512 85 270.174 85H241.159C237.821 85 235.115 87.8399 235.115 91.3432V211.863C235.115 215.367 232.409 218.207 229.07 218.207H219.055C214.139 218.207 211.279 224.038 214.137 228.237L250.748 282.024C253.159 285.565 258.175 285.565 260.585 282.024L297.197 228.237C300.054 224.038 297.195 218.207 292.278 218.207H282.263C278.925 218.207 276.219 215.367 276.219 211.863V91.3432ZM97.9912 320.978C89.4144 300.272 85 278.079 85 255.667H136.209C154.716 255.667 169.133 271.224 176.215 288.322C180.503 298.675 186.789 308.082 194.713 316.007C202.637 323.93 212.044 330.216 222.397 334.505C232.75 338.793 243.847 341 255.053 341C266.259 341 277.355 338.793 287.708 334.505C298.061 330.216 307.469 323.93 315.393 316.007C323.317 308.082 329.602 298.675 333.891 288.322C340.973 271.224 355.389 255.667 373.896 255.667H426.333C426.333 278.079 421.919 300.272 413.342 320.978C404.765 341.684 392.194 360.499 376.346 376.346C360.499 392.194 341.684 404.765 320.978 413.342C300.272 421.919 278.079 426.333 255.667 426.333C233.255 426.333 211.062 421.919 190.356 413.342C169.649 404.765 150.835 392.194 134.987 376.346C119.139 360.499 106.568 341.684 97.9912 320.978ZM168.711 122.058C164.12 125.754 163.336 132.547 166.959 137.23C170.582 141.914 177.24 142.714 181.83 139.018L197.415 126.469C202.005 122.773 202.79 115.981 199.167 111.297C195.544 106.614 188.886 105.814 184.295 109.51L168.711 122.058ZM344.329 122.058C348.92 125.754 349.704 132.547 346.081 137.23C342.458 141.914 335.8 142.714 331.21 139.018L315.625 126.469C311.035 122.773 310.25 115.981 313.873 111.297C317.496 106.614 324.154 105.814 328.745 109.51L344.329 122.058ZM117.307 210.537C111.867 208.349 109.196 202.075 111.341 196.525L118.624 177.682C120.769 172.132 126.918 169.407 132.358 171.596C137.799 173.784 140.47 180.058 138.324 185.608L131.042 204.451C128.896 210.001 122.747 212.726 117.307 210.537ZM401.699 196.525C403.844 202.075 401.173 208.349 395.733 210.537C390.293 212.726 384.144 210.001 381.998 204.451L374.716 185.608C372.57 180.058 375.241 173.784 380.682 171.596C386.122 169.407 392.271 172.132 394.416 177.682L401.699 196.525Z" fill="url(#paint2_linear_61_60)"/>
    <path d="M376.346 376.346C344.34 408.352 300.93 426.333 255.666 426.333C210.403 426.333 166.993 408.352 134.987 376.346V376.346C152.971 358.362 182.061 359.388 205.327 369.662C221.036 376.599 238.161 380.282 255.666 380.282C273.171 380.282 290.296 376.599 306.006 369.662C329.272 359.388 358.362 358.362 376.346 376.346V376.346Z" fill="black" fill-opacity="0.25"/>
    <defs>
        <linearGradient id="paint0_linear_61_60" x1="0" y1="512" x2="512" y2="512" gradientUnits="userSpaceOnUse">
            <stop stop-color="#242E35"/>
            <stop offset="1" stop-color="#2E2135"/>
        </linearGradient>
        <linearGradient id="paint1_linear_61_60" x1="0" y1="512" x2="512" y2="512" gradientUnits="userSpaceOnUse">
            <stop stop-color="#C631FF"/>
            <stop offset="1" stop-color="#4DC4FE"/>
        </linearGradient>
        <linearGradient id="paint2_linear_61_60" x1="440.993" y1="248.652" x2="73.0443" y2="248.652" gradientUnits="userSpaceOnUse">
            <stop stop-color="#C631FF"/>
            <stop offset="1" stop-color="#4DC4FE"/>
        </linearGradient>
    </defs>
</svg>
