<svg width="48" height="48" viewBox="-4.8 -4.8 57.6 57.6" fill="none" xmlns="http://www.w3.org/2000/svg">
    <path fill-rule="evenodd" clip-rule="evenodd" d="M26.8901 0.892008C26.8901 0.399366 26.5095 0 26.0401 0H21.9599C21.4905 0 21.1099 0.399366 21.1099 0.892008V17.8402C21.1099 18.3328 20.7293 18.7322 20.2599 18.7322H18.8515C18.1601 18.7322 17.758 19.5523 18.1598 20.1426L23.3083 27.7065C23.6473 28.2045 24.3527 28.2045 24.6917 27.7065L29.8402 20.1426C30.242 19.5523 29.8399 18.7322 29.1485 18.7322H27.7401C27.2707 18.7322 26.8901 18.3328 26.8901 17.8402V0.892008ZM1.82688 33.1844C0.620778 30.2726 0 27.1517 0 24H7.20132C9.80388 24 11.8312 26.1877 12.8271 28.5922C13.4302 30.0481 14.3141 31.371 15.4284 32.4853C16.5427 33.5996 17.8656 34.4835 19.3215 35.0866C20.7774 35.6896 22.3378 36 23.9137 36C25.4895 36 27.05 35.6896 28.5059 35.0866C29.9618 34.4835 31.2846 33.5996 32.399 32.4853C33.5133 31.371 34.3972 30.0481 35.0002 28.5922C35.9962 26.1877 38.0235 24 40.626 24H48C48 27.1517 47.3792 30.2726 46.1731 33.1844C44.967 36.0962 43.1992 38.742 40.9706 40.9706C38.742 43.1992 36.0962 44.967 33.1844 46.1731C30.2726 47.3792 27.1517 48 24 48C20.8483 48 17.7274 47.3792 14.8156 46.1731C11.9038 44.967 9.25802 43.1992 7.02944 40.9706C4.80085 38.742 3.03301 36.0962 1.82688 33.1844ZM11.7718 5.2113C11.1263 5.73106 11.016 6.6863 11.5254 7.34489C12.0349 8.00347 12.9712 8.11601 13.6167 7.59624L15.8083 5.83165C16.4538 5.31188 16.5642 4.35664 16.0547 3.69806C15.5452 3.03947 14.6089 2.92693 13.9634 3.4467L11.7718 5.2113ZM36.4682 5.2113C37.1137 5.73106 37.224 6.6863 36.7146 7.34489C36.2051 8.00347 35.2688 8.11601 34.6233 7.59624L32.4317 5.83165C31.7862 5.31188 31.6758 4.35664 32.1853 3.69806C32.6948 3.03947 33.6311 2.92693 34.2766 3.4467L36.4682 5.2113ZM4.54318 17.6537C3.77816 17.3459 3.40253 16.4637 3.7042 15.6832L4.72836 13.0335C5.03003 12.253 5.89475 11.8697 6.65977 12.1775C7.42479 12.4853 7.80042 13.3675 7.49875 14.148L6.47459 16.7977C6.17293 17.5782 5.3082 17.9615 4.54318 17.6537ZM44.5358 15.6832C44.8375 16.4637 44.4618 17.3459 43.6968 17.6537C42.9318 17.9615 42.0671 17.5782 41.7654 16.7977L40.7412 14.148C40.4396 13.3675 40.8152 12.4853 41.5802 12.1775C42.3452 11.8697 43.21 12.253 43.5116 13.0335L44.5358 15.6832Z" fill="url(#paint0_linear_38_77)"/>
    <path d="M40.9704 40.9703C36.4695 45.4712 30.365 47.9998 23.9999 47.9998C17.6347 47.9998 11.5302 45.4712 7.0293 40.9703V40.9703C9.55832 38.4413 13.6491 38.5856 16.9209 40.0303C19.13 41.0058 21.5382 41.5238 23.9999 41.5238C26.4615 41.5238 28.8697 41.0058 31.0788 40.0303C34.3506 38.5856 38.4414 38.4413 40.9704 40.9703V40.9703Z" fill="black" fill-opacity="0.25"/>
    <defs>
        <linearGradient id="paint0_linear_38_77" x1="50.0615" y1="23.0136" x2="-1.68128" y2="23.0136" gradientUnits="userSpaceOnUse">
            <stop stop-color="#C631FF"/>
            <stop offset="1" stop-color="#4DC4FE"/>
        </linearGradient>
    </defs>
</svg>
