<svg width="24" height="24" viewBox="0 0 24 24" fill="none" xmlns="http://www.w3.org/2000/svg">
    <path d="M12.0003 18.6765C15.6879 18.6765 18.6772 15.687 18.6772 11.9994C18.6772 8.3117 15.6879 5.3222 12.0003 5.3222C8.31262 5.3222 5.32312 8.3117 5.32312 11.9994C5.32312 15.687 8.31253 18.6765 12.0002 18.6765" fill="white"/>
    <path d="M3.36466 8.71849C2.86654 7.85567 2.28104 6.95014 1.60816 6.00189C0.554758 7.82602 0.000157853 9.89534 0.000122072 12.0018C8.62916e-05 14.1082 0.554616 16.1776 1.60796 18.0017C2.6613 19.8259 4.17633 21.3406 6.00072 22.3936C7.82511 23.4465 9.89456 24.0006 12.001 24.0001C13.1054 22.4511 13.8553 21.3342 14.2506 20.6495C15.0099 19.3344 15.9918 17.4515 17.1965 15.001V14.9995C16.6702 15.912 15.913 16.6699 15.0009 17.1968C14.0887 17.7238 13.054 18.0013 12.0006 18.0015C10.9472 18.0016 9.91232 17.7244 9.00005 17.1978C8.08779 16.6711 7.33027 15.9135 6.80369 15.0011C5.16757 11.9498 4.02122 9.85549 3.36466 8.71849Z" fill="#229342"/>
    <path d="M12.0007 23.9996C13.5766 23.9999 15.1371 23.6897 16.5931 23.0867C18.0491 22.4837 19.372 21.5998 20.4863 20.4855C21.6006 19.3711 22.4844 18.0481 23.0873 16.5921C23.6902 15.1361 24.0003 13.5756 23.9999 11.9997C23.9995 9.89323 23.4445 7.82399 22.3909 5.99997C20.1177 5.77591 18.44 5.66388 17.3578 5.66388C16.1308 5.66388 14.3448 5.77591 11.9998 5.99997L11.9985 6.00091C13.0519 6.00039 14.0869 6.27726 14.9994 6.80367C15.9118 7.33009 16.6696 8.08749 17.1964 8.99969C17.7233 9.9119 18.0006 10.9468 18.0006 12.0002C18.0006 13.0536 17.7232 14.0884 17.1963 15.0006L12.0007 23.9996Z" fill="#FBC116"/>
    <path d="M12.0003 16.751C14.6238 16.751 16.7505 14.6243 16.7505 12.0007C16.7505 9.37709 14.6238 7.25037 12.0002 7.25037C9.37681 7.25037 7.25 9.37718 7.25 12.0007C7.25 14.6242 9.37681 16.751 12.0003 16.751Z" fill="#1A73E8"/>
    <path d="M12.0003 6.00035H22.3912C21.3383 4.17593 19.8236 2.66089 17.9994 1.60758C16.1752 0.554259 14.1058 -0.000203538 11.9994 -6.10077e-05C9.89289 8.1523e-05 7.8236 0.554825 5.99954 1.60839C4.17548 2.66195 2.66097 4.17719 1.60828 6.00175L6.80381 15.0008L6.80521 15.0016C6.27811 14.0895 6.00044 13.0548 6.00013 12.0014C5.99982 10.948 6.27688 9.91304 6.80345 9.00068C7.33002 8.08833 8.08753 7.33071 8.99981 6.80401C9.91209 6.27731 10.947 6.0001 12.0004 6.00025L12.0003 6.00035Z" fill="#E33B2E"/>
</svg>
