<svg width="24" height="24" viewBox="0 0 24 24" fill="none" xmlns="http://www.w3.org/2000/svg">
    <g clip-path="url(#clip0_558_2381)">
        <path d="M22.7079 8.03391C22.2036 6.82041 21.1806 5.51019 20.3795 5.09604C20.9508 6.20266 21.3473 7.39108 21.5549 8.61906L21.557 8.63853C20.2447 5.36674 18.0193 4.04755 16.2019 1.17498C16.108 1.02855 16.0168 0.880389 15.9284 0.730572C15.8829 0.652309 15.8402 0.572407 15.8006 0.491025C15.7251 0.345052 15.667 0.190769 15.6274 0.0313121C15.6275 0.0239457 15.6248 0.0168115 15.62 0.0112789C15.6151 0.00574625 15.6084 0.00220496 15.601 0.00133471C15.5939 -0.000444904 15.5864 -0.000444904 15.5792 0.00133471C15.5778 0.00133471 15.5753 0.00405169 15.5735 0.00468566C15.5717 0.00531962 15.5678 0.00794603 15.5652 0.00912339L15.5696 0.00133471C12.6543 1.70841 11.665 4.86844 11.574 6.44909C10.4098 6.52907 9.29663 6.95808 8.37984 7.68016C8.28422 7.59911 8.18423 7.52334 8.08034 7.4532C7.81583 6.52752 7.80457 5.54782 8.04774 4.61631C6.97708 5.13493 6.02575 5.87017 5.25396 6.77549H5.24852C4.78854 6.19243 4.82087 4.2698 4.84723 3.86814C4.71116 3.9229 4.58127 3.99187 4.45969 4.07391C4.05363 4.36375 3.67401 4.68894 3.32526 5.04568C2.92792 5.44862 2.56499 5.8841 2.24028 6.34757V6.34929V6.34721C1.49418 7.4052 0.964915 8.60043 0.682999 9.86398L0.667512 9.94059C0.62468 10.1814 0.586635 10.4231 0.553399 10.6654C0.553399 10.6741 0.551588 10.6822 0.550682 10.6908C0.449038 11.2189 0.386078 11.7537 0.362305 12.2909V12.3508C0.370093 21.2862 10.0478 26.8622 17.7821 22.3878C19.2541 21.5362 20.5209 20.3716 21.4931 18.9764C22.4653 17.5812 23.119 15.9894 23.4081 14.3136C23.4276 14.1639 23.4434 14.0156 23.4608 13.8644C23.6999 11.8885 23.441 9.88424 22.7079 8.03391ZM9.33033 17.1193C9.38458 17.1454 9.43548 17.1736 9.49118 17.1984L9.49924 17.2035C9.44252 17.1763 9.38621 17.1482 9.33033 17.1193ZM21.5579 8.64124V8.6301L21.56 8.64242L21.5579 8.64124Z" fill="url(#paint0_linear_558_2381)"/>
        <path d="M22.7079 8.03394C22.2036 6.82045 21.1806 5.51023 20.3795 5.09607C20.9508 6.20269 21.3473 7.39111 21.5549 8.61909V8.63014L21.557 8.64245C22.4516 11.2025 22.3222 14.0093 21.1958 16.4761C19.8656 19.3304 16.6456 22.256 11.6054 22.1137C6.15953 21.9595 1.36342 17.9184 0.466818 12.6255C0.303618 11.7908 0.466818 11.3677 0.548871 10.6893C0.436895 11.2162 0.374434 11.7524 0.362305 12.2909V12.3509C0.370093 21.2862 10.0478 26.8623 17.7821 22.3878C19.2541 21.5363 20.5209 20.3717 21.4931 18.9764C22.4653 17.5812 23.119 15.9894 23.4081 14.3136C23.4276 14.1639 23.4434 14.0156 23.4608 13.8644C23.6999 11.8885 23.441 9.88427 22.7079 8.03394Z" fill="url(#paint1_radial_558_2381)"/>
        <path d="M22.7079 8.03394C22.2036 6.82045 21.1806 5.51023 20.3795 5.09607C20.9508 6.20269 21.3473 7.39111 21.5549 8.61909V8.63014L21.557 8.64245C22.4516 11.2025 22.3222 14.0093 21.1958 16.4761C19.8656 19.3304 16.6456 22.256 11.6054 22.1137C6.15953 21.9595 1.36342 17.9184 0.466818 12.6255C0.303618 11.7908 0.466818 11.3677 0.548871 10.6893C0.436895 11.2162 0.374434 11.7524 0.362305 12.2909V12.3509C0.370093 21.2862 10.0478 26.8623 17.7821 22.3878C19.2541 21.5363 20.5209 20.3717 21.4931 18.9764C22.4653 17.5812 23.119 15.9894 23.4081 14.3136C23.4276 14.1639 23.4434 14.0156 23.4608 13.8644C23.6999 11.8885 23.441 9.88427 22.7079 8.03394Z" fill="url(#paint2_radial_558_2381)"/>
        <path d="M17.0675 9.39829C17.0927 9.41595 17.1161 9.43361 17.1397 9.45128C16.8481 8.93431 16.4852 8.46098 16.0616 8.04524C12.4542 4.43718 15.1162 0.222052 15.5651 0.00795409L15.5696 0.00134277C12.6542 1.70842 11.665 4.86845 11.574 6.4491C11.7094 6.43977 11.8435 6.42836 11.9819 6.42836C13.0163 6.43028 14.0318 6.70608 14.9251 7.22774C15.8184 7.7494 16.5576 8.4983 17.0675 9.39829Z" fill="url(#paint3_radial_558_2381)"/>
        <path d="M11.9894 10.1188C11.9702 10.4075 10.9501 11.4032 10.5935 11.4032C7.29299 11.4032 6.7572 13.3998 6.7572 13.3998C6.90338 15.0811 8.07494 16.4659 9.49112 17.1984C9.55578 17.232 9.62144 17.2622 9.68701 17.2918C9.79926 17.3416 9.9129 17.3881 10.0278 17.4314C10.5138 17.6034 11.0229 17.7016 11.538 17.7227C17.323 17.9941 18.4437 10.8049 14.2689 8.71876C15.2538 8.59059 16.2511 8.83275 17.0675 9.39828C16.5575 8.49828 15.8183 7.74938 14.9251 7.22772C14.0318 6.70607 13.0163 6.43026 11.9819 6.42834C11.8441 6.42834 11.7094 6.43976 11.574 6.44908C10.4097 6.52906 9.29657 6.95807 8.37978 7.68015C8.55675 7.82994 8.75654 8.03001 9.17731 8.44471C9.96487 9.22068 11.9849 10.0245 11.9894 10.1188Z" fill="url(#paint4_radial_558_2381)"/>
        <path d="M11.9894 10.1188C11.9702 10.4075 10.9501 11.4032 10.5935 11.4032C7.29299 11.4032 6.7572 13.3998 6.7572 13.3998C6.90338 15.0811 8.07494 16.4659 9.49112 17.1984C9.55578 17.232 9.62144 17.2622 9.68701 17.2918C9.79926 17.3416 9.9129 17.3881 10.0278 17.4314C10.5138 17.6034 11.0229 17.7016 11.538 17.7227C17.323 17.9941 18.4437 10.8049 14.2689 8.71876C15.2538 8.59059 16.2511 8.83275 17.0675 9.39828C16.5575 8.49828 15.8183 7.74938 14.9251 7.22772C14.0318 6.70607 13.0163 6.43026 11.9819 6.42834C11.8441 6.42834 11.7094 6.43976 11.574 6.44908C10.4097 6.52906 9.29657 6.95807 8.37978 7.68015C8.55675 7.82994 8.75654 8.03001 9.17731 8.44471C9.96487 9.22068 11.9849 10.0245 11.9894 10.1188Z" fill="url(#paint5_radial_558_2381)"/>
        <path d="M7.83864 7.29419C7.91951 7.34565 7.99937 7.39867 8.07818 7.45322C7.81367 6.52755 7.80241 5.54785 8.04558 4.61633C6.97489 5.13494 6.02353 5.87018 5.25171 6.77552C5.30831 6.77398 6.99203 6.74373 7.83864 7.29419Z" fill="url(#paint6_radial_558_2381)"/>
        <path d="M0.468321 12.6254C1.36402 17.9184 6.16103 21.9594 11.6069 22.1137C16.6471 22.2562 19.867 19.3304 21.1973 16.4761C22.3237 14.0092 22.4531 11.2025 21.5585 8.64242V8.63137C21.5585 8.62267 21.5567 8.61751 21.5585 8.62023L21.5606 8.6397C21.9724 11.3281 20.605 13.9327 18.4673 15.6938L18.4607 15.7088C14.2957 19.101 10.3096 17.7554 9.50283 17.2062C9.44608 17.179 9.38977 17.151 9.33392 17.122C6.90548 15.9612 5.90228 13.7487 6.11729 11.8513C5.54083 11.8598 4.97426 11.701 4.48625 11.394C3.99824 11.087 3.60973 10.6451 3.36779 10.1218C4.00527 9.73131 4.73212 9.51055 5.47909 9.48057C6.22607 9.45059 6.96827 9.61239 7.63499 9.95055C9.00954 10.5745 10.5737 10.636 11.9929 10.1218C11.9885 10.0274 9.96852 9.2234 9.18086 8.44779C8.76009 8.033 8.5604 7.83321 8.38343 7.68323C8.28781 7.60215 8.18782 7.52635 8.08393 7.45618C8.01501 7.40918 7.93748 7.35828 7.84438 7.29715C6.99777 6.74669 5.31406 6.77694 5.25836 6.77848H5.25302C4.79303 6.19541 4.82536 4.27279 4.85172 3.87122C4.71566 3.92594 4.58576 3.99488 4.46419 4.07689C4.05813 4.36673 3.6785 4.69192 3.32976 5.04866C2.93098 5.45047 2.56653 5.88495 2.24025 6.34756V6.34928V6.3472C1.49415 7.4052 0.964878 8.60043 0.682963 9.86397C0.677347 9.88761 0.26491 11.6904 0.468321 12.6254Z" fill="url(#paint7_radial_558_2381)"/>
        <path d="M16.0622 8.04523C16.4859 8.46145 16.8489 8.9353 17.1403 9.45281C17.2005 9.49763 17.2585 9.5452 17.3143 9.59536C19.9458 12.0211 18.567 15.4501 18.4643 15.6942C20.6019 13.9329 21.9681 11.3284 21.5576 8.63998C20.2447 5.36674 18.0193 4.04755 16.2018 1.17498C16.1079 1.02855 16.0168 0.880389 15.9284 0.730572C15.8828 0.652309 15.8402 0.572407 15.8005 0.491025C15.7251 0.345052 15.667 0.190769 15.6273 0.0313121C15.6274 0.0239457 15.6248 0.0168115 15.6199 0.0112789C15.615 0.00574625 15.6083 0.00220496 15.601 0.00133471C15.5938 -0.000444904 15.5863 -0.000444904 15.5792 0.00133471C15.5777 0.00133471 15.5753 0.00405169 15.5734 0.00468566C15.5716 0.00531962 15.5677 0.00794603 15.5651 0.00912339C15.1162 0.222044 12.4542 4.43717 16.0622 8.04523Z" fill="url(#paint8_radial_558_2381)"/>
        <path d="M17.3125 9.59381C17.2568 9.54365 17.1987 9.49608 17.1386 9.45126C17.1149 9.4336 17.0916 9.41594 17.0664 9.39828C16.25 8.83275 15.2526 8.59059 14.2678 8.71876C18.4424 10.8061 17.3224 17.9941 11.5369 17.7227C11.0218 17.7016 10.5127 17.6034 10.0267 17.4314C9.9117 17.3883 9.79805 17.3418 9.68588 17.2918C9.62022 17.2619 9.55465 17.232 9.48999 17.1984L9.49805 17.2035C10.3048 17.7543 14.2896 19.0998 18.4559 15.7061L18.4625 15.6912C18.5664 15.4485 19.9452 12.0187 17.3125 9.59381Z" fill="url(#paint9_radial_558_2381)"/>
        <path d="M6.75719 13.3999C6.75719 13.3999 7.29298 11.4032 10.5935 11.4032C10.9501 11.4032 11.9711 10.4076 11.9894 10.1188C10.5701 10.633 9.00596 10.5715 7.63143 9.94748C6.96469 9.60932 6.22246 9.44753 5.47547 9.47752C4.72848 9.50752 4.00161 9.7283 3.36414 10.1188C3.60607 10.6421 3.99458 11.084 4.48259 11.391C4.9706 11.698 5.53717 11.8568 6.11363 11.8483C5.89863 13.7461 6.90183 15.9586 9.33026 17.119C9.38451 17.1451 9.43541 17.1733 9.49111 17.1981C8.07375 16.4659 6.90337 15.0811 6.75719 13.3999Z" fill="url(#paint10_radial_558_2381)"/>
        <path d="M22.7079 8.03391C22.2036 6.82041 21.1806 5.51019 20.3795 5.09604C20.9508 6.20266 21.3473 7.39108 21.5549 8.61906L21.557 8.63853C20.2447 5.36674 18.0193 4.04755 16.2019 1.17498C16.108 1.02855 16.0168 0.880389 15.9284 0.730572C15.8829 0.652309 15.8402 0.572407 15.8006 0.491025C15.7251 0.345052 15.667 0.190769 15.6274 0.0313121C15.6275 0.0239457 15.6248 0.0168115 15.62 0.0112789C15.6151 0.00574625 15.6084 0.00220496 15.601 0.00133471C15.5939 -0.000444904 15.5864 -0.000444904 15.5792 0.00133471C15.5778 0.00133471 15.5753 0.00405169 15.5735 0.00468566C15.5717 0.00531962 15.5678 0.00794603 15.5652 0.00912339L15.5696 0.00133471C12.6543 1.70841 11.665 4.86844 11.574 6.44909C11.7094 6.43976 11.8435 6.42835 11.9819 6.42835C13.0164 6.43027 14.0318 6.70608 14.9251 7.22773C15.8184 7.74939 16.5576 8.49829 17.0676 9.39829C16.2512 8.83276 15.2538 8.5906 14.269 8.71877C18.4437 10.8061 17.3237 17.9941 11.5381 17.7228C11.0229 17.7016 10.5139 17.6034 10.0279 17.4314C9.91289 17.3883 9.79924 17.3418 9.68707 17.2918C9.6215 17.2619 9.55584 17.232 9.49118 17.1984L9.49924 17.2035C9.44252 17.1763 9.38621 17.1482 9.33033 17.1193C9.38458 17.1454 9.43548 17.1736 9.49118 17.1984C8.07382 16.4659 6.90344 15.0811 6.75726 13.3999C6.75726 13.3999 7.29305 11.4032 10.5935 11.4032C10.9502 11.4032 11.9711 10.4076 11.9894 10.1188C11.9849 10.0245 9.96493 9.22041 9.17737 8.44472C8.7566 8.03001 8.55681 7.83023 8.37984 7.68016C8.28422 7.59911 8.18423 7.52334 8.08034 7.4532C7.81583 6.52752 7.80457 5.54782 8.04774 4.61631C6.97708 5.13493 6.02575 5.87017 5.25396 6.77549H5.24852C4.78854 6.19243 4.82087 4.2698 4.84723 3.86814C4.71116 3.9229 4.58127 3.99187 4.45969 4.07391C4.05363 4.36375 3.67401 4.68894 3.32526 5.04568C2.92792 5.44862 2.56499 5.8841 2.24028 6.34757V6.34929V6.34721C1.49418 7.4052 0.964915 8.60043 0.682999 9.86398L0.667512 9.94059C0.645595 10.0428 0.547693 10.5614 0.533565 10.6728C0.533565 10.6812 0.533565 10.6641 0.533565 10.6728C0.443984 11.2082 0.386794 11.7486 0.362305 12.2909V12.3508C0.370093 21.2862 10.0478 26.8622 17.7821 22.3878C19.2541 21.5362 20.5209 20.3716 21.4931 18.9764C22.4653 17.5812 23.119 15.9894 23.4081 14.3136C23.4276 14.1639 23.4434 14.0156 23.4608 13.8644C23.6999 11.8885 23.441 9.88424 22.7079 8.03391Z" fill="url(#paint11_linear_558_2381)"/>
    </g>
    <defs>
        <linearGradient id="paint0_linear_558_2381" x1="21.1716" y1="3.71001" x2="1.90368" y2="22.2999" gradientUnits="userSpaceOnUse">
            <stop offset="0.048" stop-color="#FFF44F"/>
            <stop offset="0.111" stop-color="#FFE847"/>
            <stop offset="0.225" stop-color="#FFC830"/>
            <stop offset="0.368" stop-color="#FF980E"/>
            <stop offset="0.401" stop-color="#FF8B16"/>
            <stop offset="0.462" stop-color="#FF672A"/>
            <stop offset="0.534" stop-color="#FF3647"/>
            <stop offset="0.705" stop-color="#E31587"/>
        </linearGradient>
        <radialGradient id="paint1_radial_558_2381" cx="0" cy="0" r="1" gradientUnits="userSpaceOnUse" gradientTransform="translate(20.2816 2.65807) scale(24.1967 24.1967)">
            <stop offset="0.129" stop-color="#FFBD4F"/>
            <stop offset="0.186" stop-color="#FFAC31"/>
            <stop offset="0.247" stop-color="#FF9D17"/>
            <stop offset="0.283" stop-color="#FF980E"/>
            <stop offset="0.403" stop-color="#FF563B"/>
            <stop offset="0.467" stop-color="#FF3750"/>
            <stop offset="0.71" stop-color="#F5156C"/>
            <stop offset="0.782" stop-color="#EB0878"/>
            <stop offset="0.86" stop-color="#E50080"/>
        </radialGradient>
        <radialGradient id="paint2_radial_558_2381" cx="0" cy="0" r="1" gradientUnits="userSpaceOnUse" gradientTransform="translate(11.44 12.5503) scale(24.1967 24.1967)">
            <stop offset="0.3" stop-color="#960E18"/>
            <stop offset="0.351" stop-color="#B11927" stop-opacity="0.74"/>
            <stop offset="0.435" stop-color="#DB293D" stop-opacity="0.343"/>
            <stop offset="0.497" stop-color="#F5334B" stop-opacity="0.094"/>
            <stop offset="0.53" stop-color="#FF3750" stop-opacity="0"/>
        </radialGradient>
        <radialGradient id="paint3_radial_558_2381" cx="0" cy="0" r="1" gradientUnits="userSpaceOnUse" gradientTransform="translate(14.3571 -2.83313) scale(17.5295 17.5295)">
            <stop offset="0.132" stop-color="#FFF44F"/>
            <stop offset="0.252" stop-color="#FFDC3E"/>
            <stop offset="0.506" stop-color="#FF9D12"/>
            <stop offset="0.526" stop-color="#FF980E"/>
        </radialGradient>
        <radialGradient id="paint4_radial_558_2381" cx="0" cy="0" r="1" gradientUnits="userSpaceOnUse" gradientTransform="translate(8.76349 18.8707) scale(11.5211)">
            <stop offset="0.353" stop-color="#3A8EE6"/>
            <stop offset="0.472" stop-color="#5C79F0"/>
            <stop offset="0.669" stop-color="#9059FF"/>
            <stop offset="1" stop-color="#C139E6"/>
        </radialGradient>
        <radialGradient id="paint5_radial_558_2381" cx="0" cy="0" r="1" gradientUnits="userSpaceOnUse" gradientTransform="translate(12.7658 10.5676) rotate(-13.5915) scale(6.10841 7.15142)">
            <stop offset="0.206" stop-color="#9059FF" stop-opacity="0"/>
            <stop offset="0.278" stop-color="#8C4FF3" stop-opacity="0.064"/>
            <stop offset="0.747" stop-color="#7716A8" stop-opacity="0.45"/>
            <stop offset="0.975" stop-color="#6E008B" stop-opacity="0.6"/>
        </radialGradient>
        <radialGradient id="paint6_radial_558_2381" cx="0" cy="0" r="1" gradientUnits="userSpaceOnUse" gradientTransform="translate(11.1344 1.668) scale(8.28826)">
            <stop stop-color="#FFE226"/>
            <stop offset="0.121" stop-color="#FFDB27"/>
            <stop offset="0.295" stop-color="#FFC82A"/>
            <stop offset="0.502" stop-color="#FFA930"/>
            <stop offset="0.732" stop-color="#FF7E37"/>
            <stop offset="0.792" stop-color="#FF7139"/>
        </radialGradient>
        <radialGradient id="paint7_radial_558_2381" cx="0" cy="0" r="1" gradientUnits="userSpaceOnUse" gradientTransform="translate(17.6492 -3.58901) scale(35.3623)">
            <stop offset="0.113" stop-color="#FFF44F"/>
            <stop offset="0.456" stop-color="#FF980E"/>
            <stop offset="0.622" stop-color="#FF5634"/>
            <stop offset="0.716" stop-color="#FF3647"/>
            <stop offset="0.904" stop-color="#E31587"/>
        </radialGradient>
        <radialGradient id="paint8_radial_558_2381" cx="0" cy="0" r="1" gradientUnits="userSpaceOnUse" gradientTransform="translate(14.6744 -1.62342) rotate(83.9761) scale(25.9179 17.0097)">
            <stop stop-color="#FFF44F"/>
            <stop offset="0.06" stop-color="#FFE847"/>
            <stop offset="0.168" stop-color="#FFC830"/>
            <stop offset="0.304" stop-color="#FF980E"/>
            <stop offset="0.356" stop-color="#FF8B16"/>
            <stop offset="0.455" stop-color="#FF672A"/>
            <stop offset="0.57" stop-color="#FF3647"/>
            <stop offset="0.737" stop-color="#E31587"/>
        </radialGradient>
        <radialGradient id="paint9_radial_558_2381" cx="0" cy="0" r="1" gradientUnits="userSpaceOnUse" gradientTransform="translate(10.9392 4.73788) scale(22.0773 22.0773)">
            <stop offset="0.137" stop-color="#FFF44F"/>
            <stop offset="0.48" stop-color="#FF980E"/>
            <stop offset="0.592" stop-color="#FF5634"/>
            <stop offset="0.655" stop-color="#FF3647"/>
            <stop offset="0.904" stop-color="#E31587"/>
        </radialGradient>
        <radialGradient id="paint10_radial_558_2381" cx="0" cy="0" r="1" gradientUnits="userSpaceOnUse" gradientTransform="translate(16.7669 6.03012) scale(24.1634 24.1634)">
            <stop offset="0.094" stop-color="#FFF44F"/>
            <stop offset="0.231" stop-color="#FFE141"/>
            <stop offset="0.509" stop-color="#FFAF1E"/>
            <stop offset="0.626" stop-color="#FF980E"/>
        </radialGradient>
        <linearGradient id="paint11_linear_558_2381" x1="20.9401" y1="3.61058" x2="4.54504" y2="20.0053" gradientUnits="userSpaceOnUse">
            <stop offset="0.167" stop-color="#FFF44F" stop-opacity="0.8"/>
            <stop offset="0.266" stop-color="#FFF44F" stop-opacity="0.634"/>
            <stop offset="0.489" stop-color="#FFF44F" stop-opacity="0.217"/>
            <stop offset="0.6" stop-color="#FFF44F" stop-opacity="0"/>
        </linearGradient>
        <clipPath id="clip0_558_2381">
            <rect width="24" height="24" fill="white"/>
        </clipPath>
    </defs>
</svg>
