<svg width="24" height="24" viewBox="0 0 24 24" fill="none" xmlns="http://www.w3.org/2000/svg">
<path fill-rule="evenodd" clip-rule="evenodd" d="M11.2916 4.30551C12.1022 4.16266 12.9356 4.1649 13.7453 4.31211C14.5549 4.45932 15.3279 4.74918 16.0196 5.16787C16.7115 5.5866 17.3102 6.12708 17.7783 6.76173C18.2466 7.39663 18.5746 8.11283 18.7394 8.87016C18.8384 9.32532 18.877 9.78859 18.8552 10.25H19C20.1272 10.25 21.2082 10.6978 22.0052 11.4948C22.8022 12.2918 23.25 13.3728 23.25 14.5C23.25 15.6272 22.8022 16.7082 22.0052 17.5052C21.2082 18.3022 20.1272 18.75 19 18.75C18.5858 18.75 18.25 18.4142 18.25 18C18.25 17.5858 18.5858 17.25 19 17.25C19.7293 17.25 20.4288 16.9603 20.9445 16.4446C21.4603 15.9288 21.75 15.2294 21.75 14.5C21.75 13.7707 21.4603 13.0712 20.9445 12.5555C20.4288 12.0397 19.7293 11.75 19 11.75H18C17.7722 11.75 17.5568 11.6465 17.4145 11.4687C17.2721 11.2909 17.2183 11.058 17.2682 10.8357C17.3902 10.2922 17.3921 9.73315 17.2737 9.18905C17.1553 8.64475 16.918 8.12227 16.5712 7.65215C16.2242 7.18178 15.774 6.77255 15.2429 6.45112C14.7118 6.12963 14.1118 5.90335 13.4769 5.78791C12.8421 5.67248 12.1876 5.67072 11.5519 5.78274C10.9163 5.89477 10.3147 6.11785 9.78126 6.43656C8.70355 7.08047 7.97786 8.06801 7.73179 9.16428C7.65246 9.51769 7.33189 9.76391 6.96998 9.74941C6.06896 9.71332 5.18639 9.97836 4.47361 10.4936C3.76147 11.0083 3.26532 11.7386 3.06127 12.5547C2.85738 13.3703 2.95562 14.2289 3.34199 14.9858C3.72878 15.7435 4.38299 16.3565 5.19968 16.7125C5.57939 16.878 5.75303 17.32 5.58752 17.6997C5.422 18.0794 4.98001 18.253 4.60031 18.0875C3.47516 17.5971 2.55555 16.7443 2.006 15.6678C1.45603 14.5905 1.31365 13.3606 1.60606 12.1909C1.89832 11.0219 2.60452 9.99373 3.59492 9.27787C4.42378 8.67877 5.41009 8.32808 6.43187 8.25886C6.87394 6.97612 7.78957 5.87921 9.0119 5.14889C9.70627 4.73402 10.481 4.44835 11.2916 4.30551ZM12 12.25C12.4142 12.25 12.75 12.5858 12.75 13V20.1893L14.4697 18.4697C14.7626 18.1768 15.2374 18.1768 15.5303 18.4697C15.8232 18.7626 15.8232 19.2374 15.5303 19.5303L12.5303 22.5303C12.2374 22.8232 11.7626 22.8232 11.4697 22.5303L8.46968 19.5303C8.17678 19.2374 8.17678 18.7626 8.46968 18.4697C8.76257 18.1768 9.23744 18.1768 9.53034 18.4697L11.25 20.1893V13C11.25 12.5858 11.5858 12.25 12 12.25Z" fill="white"/>
</svg>
