<svg width="24" height="24" viewBox="0 0 24 24" fill="none" xmlns="http://www.w3.org/2000/svg">
<path d="M15 10L19.553 7.724C19.7054 7.64784 19.8748 7.61188 20.045 7.61955C20.2152 7.62721 20.3806 7.67825 20.5256 7.76781C20.6706 7.85736 20.7902 7.98248 20.8733 8.13127C20.9563 8.28007 20.9999 8.44761 21 8.618V15.382C20.9999 15.5524 20.9563 15.7199 20.8733 15.8687C20.7902 16.0175 20.6706 16.1426 20.5256 16.2322C20.3806 16.3218 20.2152 16.3728 20.045 16.3805C19.8748 16.3881 19.7054 16.3522 19.553 16.276L15 14V10Z" stroke="white" stroke-width="2" stroke-linecap="round" stroke-linejoin="round"/>
<path d="M3 8C3 7.46957 3.21071 6.96086 3.58579 6.58579C3.96086 6.21071 4.46957 6 5 6H13C13.5304 6 14.0391 6.21071 14.4142 6.58579C14.7893 6.96086 15 7.46957 15 8V16C15 16.5304 14.7893 17.0391 14.4142 17.4142C14.0391 17.7893 13.5304 18 13 18H5C4.46957 18 3.96086 17.7893 3.58579 17.4142C3.21071 17.0391 3 16.5304 3 16V8Z" stroke="white" stroke-width="2" stroke-linecap="round" stroke-linejoin="round"/>
</svg>
