<svg width="24" height="24" viewBox="0 0 24 24" fill="none" xmlns="http://www.w3.org/2000/svg">
<path d="M9 3H5C4.46957 3 3.96086 3.21071 3.58579 3.58579C3.21071 3.96086 3 4.46957 3 5V9C3 9.53043 3.21071 10.0391 3.58579 10.4142C3.96086 10.7893 4.46957 11 5 11H9C9.53043 11 10.0391 10.7893 10.4142 10.4142C10.7893 10.0391 11 9.53043 11 9V5C11 4.46957 10.7893 3.96086 10.4142 3.58579C10.0391 3.21071 9.53043 3 9 3Z" fill="white"/>
<path d="M9 13H5C4.46957 13 3.96086 13.2107 3.58579 13.5858C3.21071 13.9609 3 14.4696 3 15V19C3 19.5304 3.21071 20.0391 3.58579 20.4142C3.96086 20.7893 4.46957 21 5 21H9C9.53043 21 10.0391 20.7893 10.4142 20.4142C10.7893 20.0391 11 19.5304 11 19V15C11 14.4696 10.7893 13.9609 10.4142 13.5858C10.0391 13.2107 9.53043 13 9 13Z" fill="white"/>
<path d="M19 13H15C14.4696 13 13.9609 13.2107 13.5858 13.5858C13.2107 13.9609 13 14.4696 13 15V19C13 19.5304 13.2107 20.0391 13.5858 20.4142C13.9609 20.7893 14.4696 21 15 21H19C19.5304 21 20.0391 20.7893 20.4142 20.4142C20.7893 20.0391 21 19.5304 21 19V15C21 14.4696 20.7893 13.9609 20.4142 13.5858C20.0391 13.2107 19.5304 13 19 13Z" fill="white"/>
<path d="M17 3C17.2449 3.00003 17.4813 3.08996 17.6644 3.25272C17.8474 3.41547 17.9643 3.63975 17.993 3.883L18 4V6H20C20.2549 6.00028 20.5 6.09788 20.6854 6.27285C20.8707 6.44782 20.9822 6.68695 20.9972 6.94139C21.0121 7.19584 20.9293 7.44638 20.7657 7.64183C20.6021 7.83729 20.3701 7.9629 20.117 7.993L20 8H18V10C17.9997 10.2549 17.9021 10.5 17.7271 10.6854C17.5522 10.8707 17.313 10.9822 17.0586 10.9972C16.8042 11.0121 16.5536 10.9293 16.3582 10.7657C16.1627 10.6021 16.0371 10.3701 16.007 10.117L16 10V8H14C13.7451 7.99972 13.5 7.90212 13.3146 7.72715C13.1293 7.55218 13.0178 7.31305 13.0028 7.05861C12.9879 6.80416 13.0707 6.55362 13.2343 6.35817C13.3978 6.16271 13.6299 6.0371 13.883 6.007L14 6H16V4C16 3.73478 16.1053 3.48043 16.2929 3.29289C16.4804 3.10536 16.7348 3 17 3Z" fill="white"/>
<path d="M9 3H5C4.46957 3 3.96086 3.21071 3.58579 3.58579C3.21071 3.96086 3 4.46957 3 5V9C3 9.53043 3.21071 10.0391 3.58579 10.4142C3.96086 10.7893 4.46957 11 5 11H9C9.53043 11 10.0391 10.7893 10.4142 10.4142C10.7893 10.0391 11 9.53043 11 9V5C11 4.46957 10.7893 3.96086 10.4142 3.58579C10.0391 3.21071 9.53043 3 9 3Z" stroke="white"/>
<path d="M9 13H5C4.46957 13 3.96086 13.2107 3.58579 13.5858C3.21071 13.9609 3 14.4696 3 15V19C3 19.5304 3.21071 20.0391 3.58579 20.4142C3.96086 20.7893 4.46957 21 5 21H9C9.53043 21 10.0391 20.7893 10.4142 20.4142C10.7893 20.0391 11 19.5304 11 19V15C11 14.4696 10.7893 13.9609 10.4142 13.5858C10.0391 13.2107 9.53043 13 9 13Z" stroke="white"/>
<path d="M19 13H15C14.4696 13 13.9609 13.2107 13.5858 13.5858C13.2107 13.9609 13 14.4696 13 15V19C13 19.5304 13.2107 20.0391 13.5858 20.4142C13.9609 20.7893 14.4696 21 15 21H19C19.5304 21 20.0391 20.7893 20.4142 20.4142C20.7893 20.0391 21 19.5304 21 19V15C21 14.4696 20.7893 13.9609 20.4142 13.5858C20.0391 13.2107 19.5304 13 19 13Z" stroke="white"/>
<path d="M17 3C17.2449 3.00003 17.4813 3.08996 17.6644 3.25272C17.8474 3.41547 17.9643 3.63975 17.993 3.883L18 4V6H20C20.2549 6.00028 20.5 6.09788 20.6854 6.27285C20.8707 6.44782 20.9822 6.68695 20.9972 6.94139C21.0121 7.19584 20.9293 7.44638 20.7657 7.64183C20.6021 7.83729 20.3701 7.9629 20.117 7.993L20 8H18V10C17.9997 10.2549 17.9021 10.5 17.7271 10.6854C17.5522 10.8707 17.313 10.9822 17.0586 10.9972C16.8042 11.0121 16.5536 10.9293 16.3582 10.7657C16.1627 10.6021 16.0371 10.3701 16.007 10.117L16 10V8H14C13.7451 7.99972 13.5 7.90212 13.3146 7.72715C13.1293 7.55218 13.0178 7.31305 13.0028 7.05861C12.9879 6.80416 13.0707 6.55362 13.2343 6.35817C13.3978 6.16271 13.6299 6.0371 13.883 6.007L14 6H16V4C16 3.73478 16.1053 3.48043 16.2929 3.29289C16.4804 3.10536 16.7348 3 17 3Z" stroke="white"/>
</svg>
