<svg width="24" height="24" viewBox="0 0 24 24" fill="none" xmlns="http://www.w3.org/2000/svg">
<path fill-rule="evenodd" clip-rule="evenodd" d="M7 2.25C7.41421 2.25 7.75 2.58579 7.75 3V4.25H14.25V3C14.25 2.58579 14.5858 2.25 15 2.25C15.4142 2.25 15.75 2.58579 15.75 3V4.25H17C17.7293 4.25 18.4288 4.53973 18.9445 5.05546C19.4603 5.57118 19.75 6.27065 19.75 7V11C19.75 11.4142 19.4142 11.75 19 11.75H3.75V19C3.75 19.3315 3.8817 19.6495 4.11612 19.8839C4.35054 20.1183 4.66848 20.25 5 20.25H11.795C12.2092 20.25 12.545 20.5858 12.545 21C12.545 21.4142 12.2092 21.75 11.795 21.75H5C4.27065 21.75 3.57118 21.4603 3.05546 20.9445C2.53973 20.4288 2.25 19.7293 2.25 19V7C2.25 6.27065 2.53973 5.57118 3.05546 5.05546C3.57118 4.53973 4.27065 4.25 5 4.25H6.25V3C6.25 2.58579 6.58579 2.25 7 2.25ZM6.25 5.75H5C4.66848 5.75 4.35054 5.8817 4.11612 6.11612C3.8817 6.35054 3.75 6.66848 3.75 7V10.25H18.25V7C18.25 6.66848 18.1183 6.35054 17.8839 6.11612C17.6495 5.8817 17.3315 5.75 17 5.75H15.75V7C15.75 7.41421 15.4142 7.75 15 7.75C14.5858 7.75 14.25 7.41421 14.25 7V5.75H7.75V7C7.75 7.41421 7.41421 7.75 7 7.75C6.58579 7.75 6.25 7.41421 6.25 7V5.75ZM14.6412 14.6412C15.532 13.7504 16.7402 13.25 18 13.25C19.2598 13.25 20.468 13.7504 21.3588 14.6412C22.2496 15.532 22.75 16.7402 22.75 18C22.75 19.2598 22.2496 20.468 21.3588 21.3588C20.468 22.2496 19.2598 22.75 18 22.75C16.7402 22.75 15.532 22.2496 14.6412 21.3588C13.7504 20.468 13.25 19.2598 13.25 18C13.25 16.7402 13.7504 15.532 14.6412 14.6412ZM18 14.75C17.138 14.75 16.3114 15.0924 15.7019 15.7019C15.0924 16.3114 14.75 17.138 14.75 18C14.75 18.862 15.0924 19.6886 15.7019 20.2981C16.3114 20.9076 17.138 21.25 18 21.25C18.862 21.25 19.6886 20.9076 20.2981 20.2981C20.9076 19.6886 21.25 18.862 21.25 18C21.25 17.138 20.9076 16.3114 20.2981 15.7019C19.6886 15.0924 18.862 14.75 18 14.75ZM18 15.746C18.4142 15.746 18.75 16.0818 18.75 16.496V17.6893L19.5303 18.4697C19.8232 18.7626 19.8232 19.2374 19.5303 19.5303C19.2374 19.8232 18.7626 19.8232 18.4697 19.5303L17.4697 18.5303C17.329 18.3897 17.25 18.1989 17.25 18V16.496C17.25 16.0818 17.5858 15.746 18 15.746Z" fill="white"/>
</svg>
