<svg width="24" height="24" viewBox="0 0 24 24" fill="none" xmlns="http://www.w3.org/2000/svg">
    <path fill-rule="evenodd" clip-rule="evenodd" d="M11.9399 16.1395L16.8389 18.968L18.7707 18.4503L14.6296 2.99552L12.6978 3.51316L9.86936 8.41214L3.10787 10.2239C2.04536 10.5086 1.40896 11.6108 1.69366 12.6734L2.72894 16.5371C3.01364 17.5996 4.11591 18.236 5.17843 17.9513L6.14435 17.6925L6.92081 20.5902C7.20551 21.6528 8.30778 22.2892 9.3703 22.0045L11.3022 21.4868L10.0081 16.6572L11.9399 16.1395ZM9.83246 20.6383L8.53836 15.8087L12.1094 14.8518L17.0084 17.6802L17.301 17.6018L13.7811 4.46522L13.4885 4.54362L10.6601 9.4426L3.41846 11.383C2.9961 11.4962 2.7396 11.9404 2.85277 12.3628L3.88805 16.2265C4.00122 16.6488 4.44549 16.9053 4.86784 16.7922L6.99288 16.2228L8.07992 20.2797C8.19309 20.702 8.63736 20.9585 9.05972 20.8453L9.83246 20.6383ZM20.5067 12.565C20.1939 12.8063 19.8244 12.9916 19.4085 13.1031L17.8556 7.30751C18.2714 7.19608 18.6841 7.17183 19.0756 7.22442C20.2302 7.37948 21.2013 8.20262 21.5298 9.42883C21.8584 10.655 21.429 11.8534 20.5067 12.565ZM19.4361 8.56972L20.1462 11.2197C20.4235 10.8108 20.5169 10.2852 20.3707 9.73942C20.2245 9.19368 19.8807 8.78518 19.4361 8.56972Z" fill="white"/>
</svg>
