<svg width="24" height="24" viewBox="0 0 24 24" fill="none" xmlns="http://www.w3.org/2000/svg">
<path fill-rule="evenodd" clip-rule="evenodd" d="M10.0979 2.43735C11.9892 2.06114 13.9496 2.25422 15.7312 2.99218C17.5127 3.73013 19.0355 4.97982 20.1068 6.58319C21.1782 8.18657 21.75 10.0716 21.75 12C21.75 12.4142 21.4142 12.75 21 12.75C20.5858 12.75 20.25 12.4142 20.25 12C20.25 10.3683 19.7661 8.77326 18.8596 7.41655C17.9531 6.05984 16.6646 5.00242 15.1571 4.378C13.6497 3.75358 11.9909 3.5902 10.3905 3.90853C8.79017 4.22685 7.32016 5.01259 6.16637 6.16637C5.01259 7.32016 4.22685 8.79017 3.90853 10.3905C3.5902 11.9909 3.75358 13.6497 4.378 15.1571C5.00242 16.6646 6.05984 17.9531 7.41655 18.8596C8.77326 19.7661 10.3683 20.25 12 20.25C12.4142 20.25 12.75 20.5858 12.75 21C12.75 21.4142 12.4142 21.75 12 21.75C10.0716 21.75 8.18657 21.1782 6.58319 20.1068C4.97982 19.0355 3.73013 17.5127 2.99218 15.7312C2.25422 13.9496 2.06114 11.9892 2.43735 10.0979C2.81355 8.20656 3.74215 6.46927 5.10571 5.10571C6.46927 3.74215 8.20656 2.81355 10.0979 2.43735ZM12 6.25C12.4142 6.25 12.75 6.58579 12.75 7V11.6893L13.5303 12.4697C13.8232 12.7626 13.8232 13.2374 13.5303 13.5303C13.2374 13.8232 12.7626 13.8232 12.4697 13.5303L11.4697 12.5303C11.329 12.3897 11.25 12.1989 11.25 12V7C11.25 6.58579 11.5858 6.25 12 6.25ZM15.25 16C15.25 15.5858 15.5858 15.25 16 15.25H22C22.4142 15.25 22.75 15.5858 22.75 16V22C22.75 22.4142 22.4142 22.75 22 22.75H16C15.5858 22.75 15.25 22.4142 15.25 22V16ZM16.75 16.75V21.25H21.25V16.75H16.75Z" fill="white"/>
</svg>
