<svg width="24" height="24" viewBox="0 0 24 24" fill="none" xmlns="http://www.w3.org/2000/svg">
<path d="M8.20001 13.2C9.21771 10.505 10.9441 8.13474 13.1971 6.33944C15.45 4.54414 18.1458 3.3904 21 3C20.6096 5.85418 19.4558 8.55002 17.6605 10.8029C15.8652 13.0559 13.495 14.7823 10.8 15.8M10.6 9C12.5431 9.89687 14.1031 11.4568 15 13.4M3 21V17C3 16.2089 3.2346 15.4355 3.67412 14.7777C4.11365 14.1199 4.73836 13.6072 5.46927 13.3045C6.20017 13.0017 7.00444 12.9225 7.78036 13.0769C8.55629 13.2312 9.26902 13.6122 9.82843 14.1716C10.3878 14.731 10.7688 15.4437 10.9231 16.2196C11.0775 16.9956 10.9983 17.7998 10.6955 18.5307C10.3928 19.2616 9.88008 19.8864 9.22228 20.3259C8.56448 20.7654 7.79113 21 7 21H3Z" stroke="white" stroke-width="2" stroke-linecap="round" stroke-linejoin="round"/>
</svg>
