<svg width="24" height="24" viewBox="0 0 24 24" fill="none" xmlns="http://www.w3.org/2000/svg">
    <path d="M8.05313 18.7594C6.72188 17.1938 5.86875 14.8781 5.8125 12.2812V11.7188C5.86875 9.12187 6.73125 6.80625 8.05313 5.24063C9.77813 3.00938 12.3094 2.00625 15.1688 2.00625C16.9313 2.00625 18.5906 2.12813 19.9969 3.06563C17.8875 1.1625 15.1031 0.009375 12.0469 0H12C5.37188 0 0 5.37188 0 12C0 18.4312 5.0625 23.6906 11.4281 23.9906C11.6156 24 11.8125 24 12 24C15.075 24 17.8781 22.8469 19.9969 20.9437C18.5906 21.8812 17.025 21.9188 15.2625 21.9188C12.4125 21.9281 9.76875 21 8.05313 18.7594Z" fill="url(#paint0_linear_558_2401)"/>
    <path d="M8.0531 5.2406C9.14998 3.93748 10.575 3.15935 12.1312 3.15935C15.6281 3.15935 18.4593 7.1156 18.4593 12.0094C18.4593 16.9031 15.6281 20.8594 12.1312 20.8594C10.575 20.8594 9.15935 20.0719 8.0531 18.7781C9.7781 21.0094 12.3375 22.4344 15.1875 22.4344C16.9406 22.4344 18.5906 21.9 19.9969 20.9625C22.4531 18.75 24 15.5531 24 12C24 8.44685 22.4531 5.24998 19.9969 3.05623C18.5906 2.11873 16.95 1.58435 15.1875 1.58435C12.3281 1.58435 9.76873 2.99998 8.0531 5.2406Z" fill="url(#paint1_linear_558_2401)"/>
    <defs>
        <linearGradient id="paint0_linear_558_2401" x1="999.904" y1="39.12" x2="999.904" y2="2365.08" gradientUnits="userSpaceOnUse">
            <stop offset="0.3" stop-color="#FF1B2D"/>
            <stop offset="0.4381" stop-color="#FA1A2C"/>
            <stop offset="0.5939" stop-color="#ED1528"/>
            <stop offset="0.7581" stop-color="#D60E21"/>
            <stop offset="0.9272" stop-color="#B70519"/>
            <stop offset="1" stop-color="#A70014"/>
        </linearGradient>
        <linearGradient id="paint1_linear_558_2401" x1="805.237" y1="19.3694" x2="805.237" y2="2076.56" gradientUnits="userSpaceOnUse">
            <stop stop-color="#9C0000"/>
            <stop offset="0.7" stop-color="#FF4B4B"/>
        </linearGradient>
    </defs>
</svg>
