<svg width="24" height="24" viewBox="0 0 24 24" fill="none" xmlns="http://www.w3.org/2000/svg">
    <path d="M21.6563 17.8594C21.3375 18.0281 21.0094 18.1781 20.6719 18.3C19.5938 18.7031 18.4594 18.9094 17.3063 18.9094C12.8719 18.9094 9.00942 15.8625 9.00942 11.9438C9.0188 10.875 9.60942 9.89065 10.5469 9.3844C6.53442 9.55315 5.50317 13.7344 5.50317 16.1813C5.50317 23.1094 11.8875 23.8125 13.2657 23.8125C14.0063 23.8125 15.1219 23.5969 15.7969 23.3813L15.9188 23.3438C18.5063 22.4531 20.7 20.7094 22.1625 18.3938C22.275 18.2156 22.2188 17.9906 22.05 17.8781C21.9282 17.8031 21.7782 17.7938 21.6563 17.8594Z" fill="url(#paint0_linear_558_2396)"/>
    <path opacity="0.35" d="M21.6563 17.8594C21.3375 18.0281 21.0094 18.1781 20.6719 18.3C19.5938 18.7031 18.4594 18.9094 17.3063 18.9094C12.8719 18.9094 9.00942 15.8625 9.00942 11.9438C9.0188 10.875 9.60942 9.89065 10.5469 9.3844C6.53442 9.55315 5.50317 13.7344 5.50317 16.1813C5.50317 23.1094 11.8875 23.8125 13.2657 23.8125C14.0063 23.8125 15.1219 23.5969 15.7969 23.3813L15.9188 23.3438C18.5063 22.4531 20.7 20.7094 22.1625 18.3938C22.275 18.2156 22.2188 17.9906 22.05 17.8781C21.9282 17.8031 21.7782 17.7938 21.6563 17.8594Z" fill="url(#paint1_radial_558_2396)"/>
    <path d="M9.90943 22.6312C9.07505 22.1156 8.35318 21.4312 7.7813 20.6344C5.31568 17.2594 6.0563 12.525 9.4313 10.0594C9.78755 9.80624 10.1532 9.57186 10.5469 9.38436C10.8376 9.24374 11.3344 8.99999 12.0001 9.00936C12.9469 9.01874 13.8376 9.46874 14.4094 10.2281C14.7844 10.7344 15.0001 11.3437 15.0094 11.9812C15.0094 11.9625 17.3063 4.51874 7.50943 4.51874C3.3938 4.51874 0.00942882 8.42811 0.00942882 11.85C-0.00932118 13.6594 0.384429 15.4594 1.1438 17.1C3.7313 22.6125 10.0313 25.3125 15.8063 23.3906C13.8282 24.0094 11.6719 23.7375 9.90943 22.6312Z" fill="url(#paint2_linear_558_2396)"/>
    <path opacity="0.41" d="M9.90943 22.6312C9.07505 22.1156 8.35318 21.4312 7.7813 20.6344C5.31568 17.2594 6.0563 12.525 9.4313 10.0594C9.78755 9.80624 10.1532 9.57186 10.5469 9.38436C10.8376 9.24374 11.3344 8.99999 12.0001 9.00936C12.9469 9.01874 13.8376 9.46874 14.4094 10.2281C14.7844 10.7344 15.0001 11.3437 15.0094 11.9812C15.0094 11.9625 17.3063 4.51874 7.50943 4.51874C3.3938 4.51874 0.00942882 8.42811 0.00942882 11.85C-0.00932118 13.6594 0.384429 15.4594 1.1438 17.1C3.7313 22.6125 10.0313 25.3125 15.8063 23.3906C13.8282 24.0094 11.6719 23.7375 9.90943 22.6312Z" fill="url(#paint3_radial_558_2396)"/>
    <path d="M14.2781 13.9594C14.2031 14.0531 13.9688 14.1938 13.9688 14.4938C13.9688 14.7375 14.1281 14.9719 14.4094 15.1688C15.7594 16.1063 18.3 15.9844 18.3094 15.9844C19.3125 15.9844 20.2875 15.7125 21.15 15.2062C22.9125 14.175 24 12.2906 24 10.2469C24.0281 8.14688 23.25 6.75 22.9406 6.13125C20.9531 2.24063 16.6594 0 12 0C5.4375 0 0.09375 5.26875 0 11.8312C0.046875 8.40937 3.45 5.64375 7.5 5.64375C7.82812 5.64375 9.70312 5.67188 11.4375 6.59063C12.9656 7.39688 13.7719 8.3625 14.325 9.32812C14.9063 10.3312 15.0094 11.5875 15.0094 12.0938C15.0094 12.5906 14.7563 13.3406 14.2781 13.9594Z" fill="url(#paint4_radial_558_2396)"/>
    <path d="M14.2781 13.9594C14.2031 14.0531 13.9688 14.1938 13.9688 14.4938C13.9688 14.7375 14.1281 14.9719 14.4094 15.1688C15.7594 16.1063 18.3 15.9844 18.3094 15.9844C19.3125 15.9844 20.2875 15.7125 21.15 15.2062C22.9125 14.175 24 12.2906 24 10.2469C24.0281 8.14688 23.25 6.75 22.9406 6.13125C20.9531 2.24063 16.6594 0 12 0C5.4375 0 0.09375 5.26875 0 11.8312C0.046875 8.40937 3.45 5.64375 7.5 5.64375C7.82812 5.64375 9.70312 5.67188 11.4375 6.59063C12.9656 7.39688 13.7719 8.3625 14.325 9.32812C14.9063 10.3312 15.0094 11.5875 15.0094 12.0938C15.0094 12.5906 14.7563 13.3406 14.2781 13.9594Z" fill="url(#paint5_radial_558_2396)"/>
    <defs>
        <linearGradient id="paint0_linear_558_2396" x1="5.50355" y1="16.5956" x2="22.2176" y2="16.5956" gradientUnits="userSpaceOnUse">
            <stop stop-color="#0C59A4"/>
            <stop offset="1" stop-color="#114A8B"/>
        </linearGradient>
        <radialGradient id="paint1_radial_558_2396" cx="0" cy="0" r="1" gradientUnits="userSpaceOnUse" gradientTransform="translate(14.7368 16.7284) scale(8.94098 8.49299)">
            <stop offset="0.72" stop-opacity="0"/>
            <stop offset="0.95" stop-opacity="0.53"/>
            <stop offset="1"/>
        </radialGradient>
        <linearGradient id="paint2_linear_558_2396" x1="14.3223" y1="9.35118" x2="3.88112" y2="20.7242" gradientUnits="userSpaceOnUse">
            <stop stop-color="#1B9DE2"/>
            <stop offset="0.16" stop-color="#1595DF"/>
            <stop offset="0.67" stop-color="#0680D7"/>
            <stop offset="1" stop-color="#0078D4"/>
        </linearGradient>
        <radialGradient id="paint3_radial_558_2396" cx="0" cy="0" r="1" gradientUnits="userSpaceOnUse" gradientTransform="translate(6.61961 18.6571) rotate(-81.3826) scale(13.4435 10.8632)">
            <stop offset="0.76" stop-opacity="0"/>
            <stop offset="0.95" stop-opacity="0.5"/>
            <stop offset="1"/>
        </radialGradient>
        <radialGradient id="paint4_radial_558_2396" cx="0" cy="0" r="1" gradientUnits="userSpaceOnUse" gradientTransform="translate(2.42359 4.44307) rotate(92.2911) scale(18.9892 40.4492)">
            <stop stop-color="#35C1F1"/>
            <stop offset="0.11" stop-color="#34C1ED"/>
            <stop offset="0.23" stop-color="#2FC2DF"/>
            <stop offset="0.31" stop-color="#2BC3D2"/>
            <stop offset="0.67" stop-color="#36C752"/>
        </radialGradient>
        <radialGradient id="paint5_radial_558_2396" cx="0" cy="0" r="1" gradientUnits="userSpaceOnUse" gradientTransform="translate(22.5057 7.25679) rotate(73.7366) scale(9.12387 7.42096)">
            <stop stop-color="#66EB6E"/>
            <stop offset="1" stop-color="#66EB6E" stop-opacity="0"/>
        </radialGradient>
    </defs>
</svg>
