<svg width="24" height="24" viewBox="0 0 24 24" fill="none" xmlns="http://www.w3.org/2000/svg">
<g opacity="0.75">
<path fill-rule="evenodd" clip-rule="evenodd" d="M8.25 4C8.25 3.58579 8.58579 3.25 9 3.25H19C19.4142 3.25 19.75 3.58579 19.75 4V17C19.75 17.9946 19.3549 18.9484 18.6516 19.6516C17.9484 20.3549 16.9946 20.75 16 20.75C15.0054 20.75 14.0516 20.3549 13.3483 19.6516C12.6451 18.9484 12.25 17.9946 12.25 17C12.25 16.0054 12.6451 15.0516 13.3483 14.3483C14.0516 13.6451 15.0054 13.25 16 13.25C16.8161 13.25 17.6047 13.516 18.25 14V8.75H9.75V17C9.75 17.9946 9.35491 18.9484 8.65165 19.6516C7.94839 20.3549 6.99456 20.75 6 20.75C5.00544 20.75 4.05161 20.3549 3.34835 19.6516C2.64509 18.9484 2.25 17.9946 2.25 17C2.25 16.0054 2.64509 15.0516 3.34835 14.3483C4.05161 13.6451 5.00544 13.25 6 13.25C6.81606 13.25 7.6047 13.516 8.25 14V4ZM9.75 7.25H18.25V4.75H9.75V7.25ZM8.25 17C8.25 16.4033 8.01295 15.831 7.59099 15.409C7.16903 14.9871 6.59674 14.75 6 14.75C5.40326 14.75 4.83097 14.9871 4.40901 15.409C3.98705 15.831 3.75 16.4033 3.75 17C3.75 17.5967 3.98705 18.169 4.40901 18.591C4.83097 19.0129 5.40326 19.25 6 19.25C6.59674 19.25 7.16903 19.0129 7.59099 18.591C8.01295 18.169 8.25 17.5967 8.25 17ZM18.25 17C18.25 16.4033 18.0129 15.831 17.591 15.409C17.169 14.9871 16.5967 14.75 16 14.75C15.4033 14.75 14.831 14.9871 14.409 15.409C13.9871 15.831 13.75 16.4033 13.75 17C13.75 17.5967 13.9871 18.169 14.409 18.591C14.831 19.0129 15.4033 19.25 16 19.25C16.5967 19.25 17.169 19.0129 17.591 18.591C18.0129 18.169 18.25 17.5967 18.25 17Z" fill="white"/>
</g>
</svg>
