<svg width="24" height="24" viewBox="0 0 24 24" fill="none" xmlns="http://www.w3.org/2000/svg">
<path fill-rule="evenodd" clip-rule="evenodd" d="M7 3.75C6.66848 3.75 6.35054 3.8817 6.11612 4.11612C5.8817 4.35054 5.75 4.66848 5.75 5L5.75 19.0011C5.74968 19.2208 5.80728 19.4368 5.91701 19.6272C6.02673 19.8175 6.18471 19.9756 6.375 20.0855C6.73372 20.2926 6.85663 20.7513 6.64952 21.11C6.44242 21.4687 5.98372 21.5916 5.625 21.3845C5.20635 21.1428 4.85882 20.795 4.61742 20.3762C4.37612 19.9575 4.2494 19.4827 4.25 18.9995C4.25 18.9997 4.25 18.9993 4.25 18.9995V5C4.25 4.27065 4.53973 3.57118 5.05546 3.05546C5.57118 2.53973 6.27066 2.25 7 2.25H14C14.1989 2.25 14.3897 2.32902 14.5303 2.46967L19.5303 7.46967C19.671 7.61032 19.75 7.80109 19.75 8V19C19.75 19.7293 19.4603 20.4288 18.9445 20.9445C18.4288 21.4603 17.7293 21.75 17 21.75H16C15.5858 21.75 15.25 21.4142 15.25 21C15.25 20.5858 15.5858 20.25 16 20.25H17C17.3315 20.25 17.6495 20.1183 17.8839 19.8839C18.1183 19.6495 18.25 19.3315 18.25 19V8.31066L13.6893 3.75H7ZM9.25 5C9.25 4.58579 9.58579 4.25 10 4.25H11C11.4142 4.25 11.75 4.58579 11.75 5C11.75 5.41421 11.4142 5.75 11 5.75H10C9.58579 5.75 9.25 5.41421 9.25 5ZM11.25 7C11.25 6.58579 11.5858 6.25 12 6.25H13C13.4142 6.25 13.75 6.58579 13.75 7C13.75 7.41421 13.4142 7.75 13 7.75H12C11.5858 7.75 11.25 7.41421 11.25 7ZM9.25 9C9.25 8.58579 9.58579 8.25 10 8.25H11C11.4142 8.25 11.75 8.58579 11.75 9C11.75 9.41421 11.4142 9.75 11 9.75H10C9.58579 9.75 9.25 9.41421 9.25 9ZM11.25 11C11.25 10.5858 11.5858 10.25 12 10.25H13C13.4142 10.25 13.75 10.5858 13.75 11C13.75 11.4142 13.4142 11.75 13 11.75H12C11.5858 11.75 11.25 11.4142 11.25 11ZM9.25 13C9.25 12.5858 9.58579 12.25 10 12.25H11C11.4142 12.25 11.75 12.5858 11.75 13C11.75 13.4142 11.4142 13.75 11 13.75H10C9.58579 13.75 9.25 13.4142 9.25 13ZM11.25 15C11.25 14.5858 11.5858 14.25 12 14.25H13C13.4142 14.25 13.75 14.5858 13.75 15C13.75 15.4142 13.4142 15.75 13 15.75H12C11.5858 15.75 11.25 15.4142 11.25 15ZM11 17.75C10.6685 17.75 10.3505 17.8817 10.1161 18.1161C9.8817 18.3505 9.75 18.6685 9.75 19V21C9.75 21.0663 9.77634 21.1299 9.82322 21.1768C9.87011 21.2237 9.93369 21.25 10 21.25H12C12.0663 21.25 12.1299 21.2237 12.1768 21.1768C12.2237 21.1299 12.25 21.0663 12.25 21V19C12.25 18.6685 12.1183 18.3505 11.8839 18.1161C11.6495 17.8817 11.3315 17.75 11 17.75ZM9.05546 17.0555C9.57118 16.5397 10.2707 16.25 11 16.25C11.7293 16.25 12.4288 16.5397 12.9445 17.0555C13.4603 17.5712 13.75 18.2707 13.75 19V21C13.75 21.4641 13.5656 21.9092 13.2374 22.2374C12.9092 22.5656 12.4641 22.75 12 22.75H10C9.53587 22.75 9.09075 22.5656 8.76256 22.2374C8.43437 21.9092 8.25 21.4641 8.25 21V19C8.25 18.2707 8.53973 17.5712 9.05546 17.0555Z" fill="white"/>
</svg>
