<svg width="24" height="24" viewBox="0 0 24 24" fill="none" xmlns="http://www.w3.org/2000/svg">
<path fill-rule="evenodd" clip-rule="evenodd" d="M6 3.75C5.40326 3.75 4.83097 3.98705 4.40901 4.40901C3.98705 4.83097 3.75 5.40326 3.75 6V14.1894L7.46967 10.4697L7.47996 10.4596C8.05657 9.90472 8.75344 9.58026 9.5 9.58026C10.2466 9.58026 10.9434 9.90472 11.52 10.4596L11.5303 10.4697L14 12.9394L14.4697 12.4697L14.48 12.4596C15.0566 11.9047 15.7534 11.5803 16.5 11.5803C17.2466 11.5803 17.9434 11.9047 18.52 12.4596L18.5303 12.4697L20.25 14.1894V6C20.25 5.40326 20.0129 4.83097 19.591 4.40901C19.169 3.98705 18.5967 3.75 18 3.75H6ZM21.75 6C21.75 5.00544 21.3549 4.05161 20.6517 3.34835C19.9484 2.64509 18.9946 2.25 18 2.25H6C5.00544 2.25 4.05161 2.64509 3.34835 3.34835C2.64509 4.05161 2.25 5.00544 2.25 6V18C2.25 18.9946 2.64509 19.9484 3.34835 20.6517C4.05161 21.3549 5.00544 21.75 6 21.75H18C18.9946 21.75 19.9484 21.3549 20.6517 20.6517C21.3549 19.9484 21.75 18.9946 21.75 18V6ZM20.25 16.3107L17.4751 13.5358C17.1255 13.2012 16.7881 13.0803 16.5 13.0803C16.2119 13.0803 15.8745 13.2012 15.5249 13.5358L15.0607 14L16.5303 15.4697C16.8232 15.7626 16.8232 16.2374 16.5303 16.5303C16.2374 16.8232 15.7626 16.8232 15.4697 16.5303L10.4751 11.5358C10.1255 11.2012 9.78811 11.0803 9.5 11.0803C9.21189 11.0803 8.87454 11.2012 8.52488 11.5358L3.75 16.3107V18C3.75 18.5967 3.98705 19.169 4.40901 19.591C4.83097 20.0129 5.40326 20.25 6 20.25H18C18.5967 20.25 19.169 20.0129 19.591 19.591C20.0129 19.169 20.25 18.5967 20.25 18V16.3107ZM14.25 8C14.25 7.58579 14.5858 7.25 15 7.25H15.01C15.4242 7.25 15.76 7.58579 15.76 8C15.76 8.41421 15.4242 8.75 15.01 8.75H15C14.5858 8.75 14.25 8.41421 14.25 8Z" fill="white"/>
</svg>
