<svg width="24" height="24" viewBox="0 0 24 24" fill="none" xmlns="http://www.w3.org/2000/svg">
<path d="M14 3V7C14 7.26522 14.1054 7.51957 14.2929 7.70711C14.4804 7.89464 14.7348 8 15 8H19M14 3H7C6.46957 3 5.96086 3.21071 5.58579 3.58579C5.21071 3.96086 5 4.46957 5 5V19C5 19.5304 5.21071 20.0391 5.58579 20.4142C5.96086 20.7893 6.46957 21 7 21H17C17.5304 21 18.0391 20.7893 18.4142 20.4142C18.7893 20.0391 19 19.5304 19 19V8M14 3L19 8M12 17V17.01M12 14C12.2517 14.0001 12.4994 13.9369 12.7202 13.8162C12.9411 13.6954 13.128 13.5211 13.2638 13.3091C13.3996 13.0972 13.4798 12.8545 13.4972 12.6034C13.5145 12.3523 13.4684 12.1009 13.3631 11.8723C13.2577 11.6437 13.0966 11.4452 12.8944 11.2953C12.6922 11.1453 12.4556 11.0486 12.2063 11.0141C11.957 10.9797 11.703 11.0085 11.4677 11.0979C11.2324 11.1874 11.0234 11.3346 10.86 11.526" stroke="white" stroke-width="2" stroke-linecap="round" stroke-linejoin="round"/>
</svg>
