<svg width="24" height="24" viewBox="0 0 24 24" fill="none" xmlns="http://www.w3.org/2000/svg">
    <path d="M9 19C4.7 20.4 4.7 16.5 3 16M15 21V17.5C15 16.5 15.1 16.1 14.5 15.5C17.3 15.2 20 14.1 20 9.50001C19.9988 8.30498 19.5325 7.15732 18.7 6.30001C19.0905 5.26198 19.0545 4.11164 18.6 3.10001C18.6 3.10001 17.5 2.80001 15.1 4.40001C13.0672 3.8706 10.9328 3.8706 8.9 4.40001C6.5 2.80001 5.4 3.10001 5.4 3.10001C4.94548 4.11164 4.90953 5.26198 5.3 6.30001C4.46745 7.15732 4.00122 8.30498 4 9.50001C4 14.1 6.7 15.2 9.5 15.5C8.9 16.1 8.9 16.7 9 17.5V21" stroke="white" stroke-width="2" stroke-linecap="round" stroke-linejoin="round"/>
</svg>
