<svg width="24" height="24" viewBox="0 0 24 24" fill="none" xmlns="http://www.w3.org/2000/svg">
    <path d="M6 6C6 5.73478 6.10536 5.48043 6.29289 5.29289C6.48043 5.10536 6.73478 5 7 5H9C9.26522 5 9.51957 5.10536 9.70711 5.29289C9.89464 5.48043 10 5.73478 10 6V18C10 18.2652 9.89464 18.5196 9.70711 18.7071C9.51957 18.8946 9.26522 19 9 19H7C6.73478 19 6.48043 18.8946 6.29289 18.7071C6.10536 18.5196 6 18.2652 6 18V6Z"
          stroke="white" stroke-width="2" stroke-linecap="round" stroke-linejoin="round"/>
    <path d="M14 6C14 5.73478 14.1054 5.48043 14.2929 5.29289C14.4804 5.10536 14.7348 5 15 5H17C17.2652 5 17.5196 5.10536 17.7071 5.29289C17.8946 5.48043 18 5.73478 18 6V18C18 18.2652 17.8946 18.5196 17.7071 18.7071C17.5196 18.8946 17.2652 19 17 19H15C14.7348 19 14.4804 18.8946 14.2929 18.7071C14.1054 18.5196 14 18.2652 14 18V6Z"
          stroke="white" stroke-width="2" stroke-linecap="round" stroke-linejoin="round"/>
</svg>
