<svg width="24" height="24" viewBox="0 0 24 24" fill="none" xmlns="http://www.w3.org/2000/svg">
    <path fill-rule="evenodd" clip-rule="evenodd"
          d="M2 6H4V20H10V22H4C2.9 22 2 21.1 2 20V6ZM22 10V4C22 2.9 21.1 2 20 2H8C6.9 2 6 2.9 6 4V16C6 17.1 6.9 18 8 18H10V16H8V4H20V10H22ZM19 10V9H15V5H13V9H9V11H10.7639C11.3132 10.3863 12.1115 10 13 10H19Z"
          fill="white"/>
    <path d="M21.9626 17.357L13.1804 21.7937C12.9143 21.9281 12.6 21.7347 12.6 21.4366V12.5634C12.6 12.2653 12.9143 12.0719 13.1804 12.2063L21.9626 16.643C22.2555 16.7909 22.2555 17.2091 21.9626 17.357Z"
          stroke="white" stroke-width="1.2"/>
</svg>
