<svg width="24" height="24" viewBox="0 0 24 24" fill="none" xmlns="http://www.w3.org/2000/svg">
    <path fill-rule="evenodd" clip-rule="evenodd"
          d="M2 6H4V20H10V22H4C2.9 22 2 21.1 2 20V6ZM22 10V4C22 2.9 21.1 2 20 2H8C6.9 2 6 2.9 6 4V16C6 17.1 6.9 18 8 18H10V16H8V4H20V10H22ZM19 10V9H15V5H13V9H9V11H10.7639C11.3132 10.3863 12.1115 10 13 10H19Z"
          fill="white"/>
    <path fill-rule="evenodd" clip-rule="evenodd"
          d="M13.9516 13.0645C13.7163 13.0645 13.4907 13.158 13.3243 13.3243C13.158 13.4907 13.0645 13.7163 13.0645 13.9516V21.0484C13.0645 21.2837 13.158 21.5093 13.3243 21.6757C13.4907 21.842 13.7163 21.9355 13.9516 21.9355H21.0484C21.2837 21.9355 21.5093 21.842 21.6757 21.6757C21.842 21.5093 21.9355 21.2837 21.9355 21.0484V13.9516C21.9355 13.7163 21.842 13.4907 21.6757 13.3243C21.5093 13.158 21.2837 13.0645 21.0484 13.0645H13.9516ZM12.5716 12.5716C12.9376 12.2056 13.434 12 13.9516 12H21.0484C21.566 12 22.0624 12.2056 22.4284 12.5716C22.7944 12.9376 23 13.434 23 13.9516V21.0484C23 21.566 22.7944 22.0624 22.4284 22.4284C22.0624 22.7944 21.566 23 21.0484 23H13.9516C13.434 23 12.9376 22.7944 12.5716 22.4284C12.2056 22.0624 12 21.566 12 21.0484V13.9516C12 13.434 12.2056 12.9376 12.5716 12.5716Z"
          fill="white"/>
</svg>
