<svg width="24" height="24" viewBox="0 0 24 24" fill="none" xmlns="http://www.w3.org/2000/svg">
<path d="M21 10.8729C20.7249 8.88942 19.8065 7.05161 18.3862 5.64255C16.966 4.23349 15.1227 3.33134 13.1404 3.07508C11.158 2.81881 9.14658 3.22265 7.41585 4.22437C5.68513 5.2261 4.33116 6.77015 3.5625 8.61867M3 4.11026V8.61867H7.5M3 13.1271C3.27513 15.1106 4.19355 16.9484 5.61378 18.3575C7.03402 19.7665 8.87727 20.6687 10.8596 20.9249C12.842 21.1812 14.8534 20.7774 16.5841 19.7756C18.3149 18.7739 19.6688 17.2299 20.4375 15.3813M21 19.8897V15.3813H16.5" stroke="white" stroke-width="2" stroke-linecap="round" stroke-linejoin="round"/>
</svg>
