<svg width="24" height="24" viewBox="0 0 24 24" fill="none" xmlns="http://www.w3.org/2000/svg">
<path fill-rule="evenodd" clip-rule="evenodd" d="M12.6901 3.31704C12.958 3.19543 13.2724 3.24179 13.4938 3.43558L21.4938 10.4356C21.6566 10.578 21.75 10.7837 21.75 11C21.75 11.2163 21.6566 11.422 21.4938 11.5644L13.4938 18.5644C13.2724 18.7582 12.958 18.8046 12.6901 18.683C12.4221 18.5614 12.25 18.2943 12.25 18V14.8157C11.4703 14.9406 10.6498 15.2371 9.82123 15.6529C8.72533 16.2027 7.65999 16.9383 6.71968 17.6803C5.7815 18.4206 4.98198 19.1558 4.41602 19.6969C4.21901 19.8852 4.05451 20.046 3.91858 20.1788C3.85728 20.2387 3.8018 20.2929 3.75176 20.3414C3.67702 20.4138 3.60462 20.4832 3.54868 20.532L3.54701 20.5335C3.52779 20.5503 3.47015 20.6006 3.40032 20.6429C3.37887 20.6558 3.33814 20.6792 3.28413 20.7008C3.24591 20.716 3.1174 20.7657 2.94633 20.753C2.71571 20.7357 2.44563 20.6011 2.31538 20.3097C2.22203 20.1008 2.25294 19.9167 2.26178 19.8674L2.26286 19.8614L2.26289 19.8614C3.22307 14.7548 5.64476 8.74491 12.25 7.37416V4.00001C12.25 3.70573 12.4221 3.43864 12.6901 3.31704ZM13.75 5.65284V8.00001C13.75 8.3695 13.4809 8.68393 13.1158 8.74101C7.98325 9.54349 5.51491 13.4581 4.28975 17.7688C4.73055 17.3735 5.2367 16.9397 5.79051 16.5027C6.77782 15.7237 7.93092 14.9231 9.14856 14.3122C10.3605 13.7041 11.6818 13.2608 12.9938 13.25C13.1938 13.2484 13.3861 13.3267 13.5281 13.4675C13.6701 13.6083 13.75 13.8 13.75 14V16.3472L19.861 11L13.75 5.65284ZM2.55528 19.4078C2.55536 19.4077 2.55746 19.4059 2.5613 19.4028C2.55711 19.4064 2.55519 19.408 2.55528 19.4078Z" fill="white"/>
</svg>
