<svg width="24" height="24" viewBox="0 0 24 24" fill="none" xmlns="http://www.w3.org/2000/svg">
<path d="M10.7896 5.51252C11.0848 5.2112 11.4775 5.03019 11.894 5.00345C12.3106 4.97671 12.7224 5.10607 13.0522 5.36726L13.2133 5.51252L23.4978 16.0127L23.64 16.1772L23.7326 16.312L23.8252 16.48L23.8543 16.543L23.9006 16.6602L23.9554 16.8492L23.9726 16.942L23.9897 17.047L23.9966 17.1467L24 17.25L23.9966 17.3532L23.988 17.4547L23.9726 17.5597L23.9554 17.6507L23.9006 17.8397L23.8543 17.957L23.7343 18.188L23.6229 18.3455L23.4978 18.4872L23.3367 18.6325L23.2047 18.727L23.0401 18.8215L22.9784 18.8512L22.8636 18.8985L22.6784 18.9545L22.5876 18.972L22.4848 18.9895L22.3871 18.9965L22.2859 19H1.717C0.256604 19 -0.506161 17.2745 0.374875 16.1597L0.505145 16.0127L10.7896 5.51252Z" fill="white"/>
</svg>
