<svg width="24" height="24" viewBox="0 0 24 24" fill="none" xmlns="http://www.w3.org/2000/svg">
<path d="M22.2828 5C23.7434 5 24.5062 6.72553 23.6251 7.8403L23.4948 7.9873L13.2089 18.4875C12.9137 18.7888 12.5209 18.9698 12.1043 18.9965C11.6877 19.0233 11.2758 18.8939 10.9459 18.6327L10.7848 18.4875L0.498868 7.9873L0.356579 7.8228L0.264006 7.68805L0.171433 7.52004L0.142289 7.45704L0.0960024 7.33979L0.041144 7.15079L0.0240004 7.05804L0.00685761 6.95303L0 6.85328V6.64678L0.00857181 6.54528L0.0240004 6.44028L0.041144 6.34927L0.0960024 6.16027L0.142289 6.04302L0.262292 5.81201L0.373722 5.65451L0.498868 5.51276L0.660014 5.36751L0.792017 5.27301L0.956592 5.1785L1.01831 5.14875L1.13317 5.1015L1.31831 5.0455L1.40917 5.028L1.51203 5.0105L1.60975 5.0035L22.2828 5Z" fill="white"/>
</svg>
